<svg xmlns="http://www.w3.org/2000/svg" viewBox="0 0 262.83 59.93"><g data-name="Camada 2"><path d="M0 30.31c0 16.14 13.21 29.24 29.54 29.62V20.27H1.75A33.23 33.23 0 000 30.31zm58.49-10.04H34.54v15h25a25.18 25.18 0 00.49-5.21 26.28 26.28 0 00-1.54-9.79zM34.54 59.6a30.15 30.15 0 0024.4-19.33h-24.4zM30.66 0A30.06 30.06 0 004.42 15.27H56.9A30.06 30.06 0 0030.66 0z" fill="#e9be3e"/><path d="M116.54 58.64q-9.59 0-14.79-4.91t-5.21-13.92V16.27h11V38.9q0 4.63 2.29 7.06t6.71 2.44q4.42 0 6.71-2.44t2.29-7.06V16.27h11v23.54q0 9-5.25 13.92t-14.75 4.91zm99-43.37h11v42h-11zm30.61 43.1a18.66 18.66 0 01-8.55-1.65 15.85 15.85 0 01-4.92-3.72 13.08 13.08 0 01-2.89-5.29l9.75-2.71a6.39 6.39 0 001.16 2.48 6.83 6.83 0 002 1.73 6.57 6.57 0 003.39.74 7.11 7.11 0 004.21-1.07 4 4 0 00.08-6.19 12.46 12.46 0 00-4.32-1.69l-4.13-1a16.79 16.79 0 01-8.59-4.46 11 11 0 01-3-7.85 11.3 11.3 0 014.25-9.29q4.29-3.4 11.64-3.4a19.07 19.07 0 018 1.4 17.74 17.74 0 014.75 3.06 12.22 12.22 0 012.89 4.46l-9.58 3.22a6.12 6.12 0 00-1.16-1.9 6 6 0 00-1.82-1.32 6.66 6.66 0 00-3-.58 6.49 6.49 0 00-3.76 1 3.16 3.16 0 00-1.36 2.77 3.39 3.39 0 001.49 3.1 14.33 14.33 0 004.54 1.61l4.38 1.07a15.59 15.59 0 018.34 4.42 11.29 11.29 0 012.89 7.89 11.65 11.65 0 01-4.5 9.66q-4.51 3.51-12.18 3.51zM92.79 47.39c-.32.11-.66.21-1 .31a10.85 10.85 0 01-2.83.34q-3.53-.08-5-1.57T82.54 41V1.27h-11v40.41q0 16.19 16 16.19a29.07 29.07 0 004.93-.37c.59-.1 1.13-.22 1.66-.35zM215.54.27h11v11h-11zm-21.16 14.08A14 14 0 01205.44 19q4.1 4.63 4.1 12.73v25.54h-11v-23q0-9.08-7.66-9.08a8.63 8.63 0 00-6.94 2.81 10.8 10.8 0 00-2.4 7.27v22h-11v-23q0-4.54-1.94-6.81a7 7 0 00-5.6-2.24q-4.63 0-7 2.81a10.8 10.8 0 00-2.4 7.27v22h-11v-42h11v7.26q4.22-8.18 13.09-8.18 9.53 0 13.09 8.52a14.73 14.73 0 016-6.51 17.91 17.91 0 018.6-2.04z" fill="#fff"/></g></svg>